<svg width="520" height="520" viewBox="0 0 520 520" fill="none" xmlns="http://www.w3.org/2000/svg">
<g filter="url(#filter0_d_0_1)">
<circle cx="260" cy="256" r="256" fill="#0E131F"/>
</g>
<path d="M124.8 316.8L35.2 274.6V249.6L124.8 207.4V230.4L66.8 257.2C64.1333 258.4 61.4667 259.467 58.8 260.4C56.2667 261.2 54.2667 261.733 52.8 262C54.2667 262.267 56.3333 262.8 59 263.6C61.6667 264.4 64.2667 265.4 66.8 266.6L124.8 293.4V316.8ZM211.922 328C201.389 328 193.122 325.067 187.122 319.2C181.255 313.333 178.322 305.267 178.322 295V240.6H148.522V218H178.322V187H203.522V218H245.722V240.6H203.522V295C203.522 301.933 206.922 305.4 213.722 305.4H243.722V328H211.922ZM310.444 330C299.51 330 290.644 326.2 283.844 318.6C277.177 311 273.844 300.8 273.844 288V258.2C273.844 245.267 277.177 235 283.844 227.4C290.51 219.8 299.377 216 310.444 216C319.51 216 326.71 218.6 332.044 223.8C337.377 228.867 340.044 235.867 340.044 244.8L334.444 239H340.244L339.444 212.8V182H364.444V328H340.044V307H334.444L340.044 301.2C340.044 310.133 337.377 317.2 332.044 322.4C326.71 327.467 319.51 330 310.444 330ZM319.244 308.4C325.644 308.4 330.577 306.533 334.044 302.8C337.644 298.933 339.444 293.6 339.444 286.8V259.2C339.444 252.4 337.644 247.133 334.044 243.4C330.577 239.533 325.644 237.6 319.244 237.6C312.844 237.6 307.844 239.467 304.244 243.2C300.644 246.933 298.844 252.267 298.844 259.2V286.8C298.844 293.733 300.644 299.067 304.244 302.8C307.844 306.533 312.844 308.4 319.244 308.4ZM394.966 316.8V293.8L452.966 267C455.632 265.8 458.232 264.8 460.766 264C463.432 263.067 465.499 262.467 466.966 262.2C465.499 261.933 463.432 261.467 460.766 260.8C458.099 260 455.499 259 452.966 257.8L394.966 230.8V207.4L484.566 249.6V274.6L394.966 316.8Z" fill="#F0E8D5"/>
<defs>
<filter id="filter0_d_0_1" x="0" y="0" width="520" height="520" filterUnits="userSpaceOnUse" color-interpolation-filters="sRGB">
<feFlood flood-opacity="0" result="BackgroundImageFix"/>
<feColorMatrix in="SourceAlpha" type="matrix" values="0 0 0 0 0 0 0 0 0 0 0 0 0 0 0 0 0 0 127 0" result="hardAlpha"/>
<feOffset dy="4"/>
<feGaussianBlur stdDeviation="2"/>
<feComposite in2="hardAlpha" operator="out"/>
<feColorMatrix type="matrix" values="0 0 0 0 0 0 0 0 0 0 0 0 0 0 0 0 0 0 0.25 0"/>
<feBlend mode="normal" in2="BackgroundImageFix" result="effect1_dropShadow_0_1"/>
<feBlend mode="normal" in="SourceGraphic" in2="effect1_dropShadow_0_1" result="shape"/>
</filter>
</defs>
</svg>
